<svg width="382" height="358" viewBox="0 0 382 358" fill="none" xmlns="http://www.w3.org/2000/svg">
<ellipse cx="287" cy="262.417" rx="95" ry="95.5" fill="#6CC574"/>
<path d="M166.96 4.15674C191.392 -2.38959 217.423 1.03772 239.328 13.6841C261.232 26.3307 277.217 47.161 283.763 71.5923C290.309 96.0235 286.882 122.055 274.236 143.959L178.868 309.143C166.221 331.048 145.391 347.031 120.959 353.578C96.5281 360.124 70.4959 356.697 48.5913 344.05C26.6869 331.404 10.7031 310.573 4.15674 286.142C-2.38952 261.711 1.03759 235.679 13.6841 213.775L109.052 48.5913C121.699 26.6869 142.529 10.7032 166.96 4.15674ZM192.5 29.0005C156.325 29.0007 127 58.326 127 94.5005C127 130.675 156.325 160 192.5 160C228.674 160 257.999 130.675 258 94.5005C258 58.3258 228.674 29.0005 192.5 29.0005Z" fill="#1BA109"/>
<path d="M230.123 143.271C236.709 133.462 240.552 121.656 240.552 108.952C240.552 74.9041 212.95 47.3027 178.902 47.3027C164.61 47.3027 151.456 52.1672 141 60.3291C152.066 43.8473 170.875 33 192.219 33C226.267 33.0001 253.868 60.6014 253.868 94.6494C253.868 114.405 244.575 131.989 230.123 143.271Z" fill="#6CC574"/>
</svg>
